<mxfile host="app.diagrams.net" modified="2023-08-22T07:40:38.482Z" agent="Mozilla/5.0 (Windows NT 10.0; Win64; x64) AppleWebKit/537.36 (KHTML, like Gecko) Chrome/115.0.0.0 Safari/537.36 OPR/101.0.0.0" etag="aFSq9R0Znzb6G-VXebS9" version="21.6.8" type="github" pages="2">
  <diagram name="Page-1" id="ehw1tSHJrtjjjTGDqjy0">
    <mxGraphModel dx="1616" dy="669" grid="0" gridSize="10" guides="1" tooltips="1" connect="1" arrows="1" fold="1" page="0" pageScale="1" pageWidth="850" pageHeight="1100" math="0" shadow="0">
      <root>
        <mxCell id="0" />
        <mxCell id="1" parent="0" />
        <mxCell id="GWrSBnzVd4DG-mL2IHD7-7" value="" style="rounded=1;whiteSpace=wrap;html=1;" parent="1" vertex="1">
          <mxGeometry x="590" y="60" width="250" height="30" as="geometry" />
        </mxCell>
        <mxCell id="GWrSBnzVd4DG-mL2IHD7-8" value="Phương pháp tính KH" style="text;html=1;strokeColor=none;fillColor=none;align=left;verticalAlign=middle;whiteSpace=wrap;rounded=0;" parent="1" vertex="1">
          <mxGeometry x="450" y="60" width="120" height="30" as="geometry" />
        </mxCell>
        <mxCell id="GWrSBnzVd4DG-mL2IHD7-9" value="" style="rounded=1;whiteSpace=wrap;html=1;" parent="1" vertex="1">
          <mxGeometry x="810" y="60" width="30" height="30" as="geometry" />
        </mxCell>
        <mxCell id="GWrSBnzVd4DG-mL2IHD7-10" value="" style="triangle;whiteSpace=wrap;html=1;rotation=90;fillColor=#bac8d3;strokeColor=#23445d;" parent="1" vertex="1">
          <mxGeometry x="820" y="65" width="10" height="20" as="geometry" />
        </mxCell>
        <mxCell id="Ml3G78IfKdre-7SLtmTw-31" value="" style="group" vertex="1" connectable="0" parent="1">
          <mxGeometry x="300" y="800" width="392" height="65" as="geometry" />
        </mxCell>
        <mxCell id="Ml3G78IfKdre-7SLtmTw-14" value="Trích khấu hao toàn bộ tài sản" style="text;html=1;strokeColor=none;fillColor=none;align=left;verticalAlign=middle;whiteSpace=wrap;rounded=0;" vertex="1" parent="Ml3G78IfKdre-7SLtmTw-31">
          <mxGeometry x="24" width="170" height="30" as="geometry" />
        </mxCell>
        <mxCell id="Ml3G78IfKdre-7SLtmTw-15" value="Tỷ lệ % trích khấu hao" style="text;html=1;strokeColor=none;fillColor=none;align=left;verticalAlign=middle;whiteSpace=wrap;rounded=0;" vertex="1" parent="Ml3G78IfKdre-7SLtmTw-31">
          <mxGeometry y="35" width="128" height="30" as="geometry" />
        </mxCell>
        <mxCell id="Ml3G78IfKdre-7SLtmTw-16" value="" style="rounded=1;whiteSpace=wrap;html=1;" vertex="1" parent="Ml3G78IfKdre-7SLtmTw-31">
          <mxGeometry x="141" y="35" width="250" height="30" as="geometry" />
        </mxCell>
        <mxCell id="Ml3G78IfKdre-7SLtmTw-20" value="" style="ellipse;whiteSpace=wrap;html=1;aspect=fixed;fontSize=16;" vertex="1" parent="Ml3G78IfKdre-7SLtmTw-31">
          <mxGeometry y="5" width="20" height="20" as="geometry" />
        </mxCell>
        <mxCell id="Ml3G78IfKdre-7SLtmTw-21" value="Trích khấu hao 1 phần tài sản" style="text;html=1;strokeColor=none;fillColor=none;align=left;verticalAlign=middle;whiteSpace=wrap;rounded=0;" vertex="1" parent="Ml3G78IfKdre-7SLtmTw-31">
          <mxGeometry x="222" width="170" height="30" as="geometry" />
        </mxCell>
        <mxCell id="Ml3G78IfKdre-7SLtmTw-22" value="" style="ellipse;whiteSpace=wrap;html=1;aspect=fixed;fontSize=16;" vertex="1" parent="Ml3G78IfKdre-7SLtmTw-31">
          <mxGeometry x="200" y="5" width="20" height="20" as="geometry" />
        </mxCell>
        <mxCell id="Ml3G78IfKdre-7SLtmTw-23" value="" style="ellipse;whiteSpace=wrap;html=1;aspect=fixed;fontSize=16;fillColor=#bac8d3;strokeColor=#23445d;" vertex="1" parent="Ml3G78IfKdre-7SLtmTw-31">
          <mxGeometry x="202.5" y="7.5" width="15" height="15" as="geometry" />
        </mxCell>
        <mxCell id="Ml3G78IfKdre-7SLtmTw-68" value="" style="group" vertex="1" connectable="0" parent="1">
          <mxGeometry x="342" y="450" width="411" height="257" as="geometry" />
        </mxCell>
        <mxCell id="Ml3G78IfKdre-7SLtmTw-51" value="" style="rounded=1;whiteSpace=wrap;html=1;container=0;" vertex="1" parent="Ml3G78IfKdre-7SLtmTw-68">
          <mxGeometry x="20" y="5" width="20" height="20" as="geometry" />
        </mxCell>
        <mxCell id="Ml3G78IfKdre-7SLtmTw-52" value="Tính khấu hao" style="text;html=1;strokeColor=none;fillColor=none;align=left;verticalAlign=middle;whiteSpace=wrap;rounded=0;container=0;" vertex="1" parent="Ml3G78IfKdre-7SLtmTw-68">
          <mxGeometry x="43" width="90" height="30" as="geometry" />
        </mxCell>
        <mxCell id="Ml3G78IfKdre-7SLtmTw-53" value="X" style="text;html=1;strokeColor=none;fillColor=none;align=center;verticalAlign=middle;whiteSpace=wrap;rounded=0;container=0;" vertex="1" parent="Ml3G78IfKdre-7SLtmTw-68">
          <mxGeometry width="60" height="30" as="geometry" />
        </mxCell>
        <mxCell id="GWrSBnzVd4DG-mL2IHD7-6" value="Trích khấu hao toàn bộ tài sản" style="text;html=1;strokeColor=none;fillColor=none;align=left;verticalAlign=middle;whiteSpace=wrap;rounded=0;container=0;" parent="Ml3G78IfKdre-7SLtmTw-68" vertex="1">
          <mxGeometry x="43" y="34" width="170" height="30" as="geometry" />
        </mxCell>
        <mxCell id="NxfoncripsZRFfGQhXbu-5" value="" style="ellipse;whiteSpace=wrap;html=1;aspect=fixed;fontSize=16;container=0;" parent="Ml3G78IfKdre-7SLtmTw-68" vertex="1">
          <mxGeometry x="19" y="39" width="20" height="20" as="geometry" />
        </mxCell>
        <mxCell id="NxfoncripsZRFfGQhXbu-7" value="Trích khấu hao 1 phần tài sản" style="text;html=1;strokeColor=none;fillColor=none;align=left;verticalAlign=middle;whiteSpace=wrap;rounded=0;container=0;" parent="Ml3G78IfKdre-7SLtmTw-68" vertex="1">
          <mxGeometry x="241" y="34" width="170" height="30" as="geometry" />
        </mxCell>
        <mxCell id="NxfoncripsZRFfGQhXbu-8" value="" style="ellipse;whiteSpace=wrap;html=1;aspect=fixed;fontSize=16;container=0;" parent="Ml3G78IfKdre-7SLtmTw-68" vertex="1">
          <mxGeometry x="219" y="39" width="20" height="20" as="geometry" />
        </mxCell>
        <mxCell id="rC_HKDBqVKq1Sw5miZrs-10" value="" style="ellipse;whiteSpace=wrap;html=1;aspect=fixed;fontSize=16;fillColor=#bac8d3;strokeColor=#23445d;container=0;" parent="Ml3G78IfKdre-7SLtmTw-68" vertex="1">
          <mxGeometry x="21.5" y="41.5" width="15" height="15" as="geometry" />
        </mxCell>
        <mxCell id="Ml3G78IfKdre-7SLtmTw-67" value="" style="group" vertex="1" connectable="0" parent="Ml3G78IfKdre-7SLtmTw-68">
          <mxGeometry x="17" y="59.5" width="283" height="197.5" as="geometry" />
        </mxCell>
        <mxCell id="GWrSBnzVd4DG-mL2IHD7-15" value="" style="rounded=1;whiteSpace=wrap;html=1;container=0;" parent="Ml3G78IfKdre-7SLtmTw-67" vertex="1">
          <mxGeometry y="16.5" width="283" height="30" as="geometry" />
        </mxCell>
        <mxCell id="NxfoncripsZRFfGQhXbu-2" value="" style="rounded=1;whiteSpace=wrap;html=1;container=0;" parent="Ml3G78IfKdre-7SLtmTw-67" vertex="1">
          <mxGeometry y="68.5" width="283" height="30" as="geometry" />
        </mxCell>
        <mxCell id="8ASevxo4EbAAmuoHaLOQ-1" value="" style="rounded=1;whiteSpace=wrap;html=1;container=0;" vertex="1" parent="Ml3G78IfKdre-7SLtmTw-67">
          <mxGeometry y="118.5" width="118" height="30" as="geometry" />
        </mxCell>
        <mxCell id="Ml3G78IfKdre-7SLtmTw-3" value="" style="rounded=1;whiteSpace=wrap;html=1;container=0;" vertex="1" parent="Ml3G78IfKdre-7SLtmTw-67">
          <mxGeometry y="167.5" width="283" height="30" as="geometry" />
        </mxCell>
        <mxCell id="Ml3G78IfKdre-7SLtmTw-4" value="dd/mm/yyyy" style="text;html=1;strokeColor=none;fillColor=none;align=center;verticalAlign=middle;whiteSpace=wrap;rounded=0;fontColor=#C2C2C2;container=0;" vertex="1" parent="Ml3G78IfKdre-7SLtmTw-67">
          <mxGeometry x="190" y="167.5" width="60" height="30" as="geometry" />
        </mxCell>
        <mxCell id="Ml3G78IfKdre-7SLtmTw-11" value="" style="rounded=1;whiteSpace=wrap;html=1;container=0;" vertex="1" parent="Ml3G78IfKdre-7SLtmTw-67">
          <mxGeometry x="134" y="123.5" width="20" height="20" as="geometry" />
        </mxCell>
        <mxCell id="Ml3G78IfKdre-7SLtmTw-12" value="Tính KH theo tỷ lệ HM" style="text;html=1;strokeColor=none;fillColor=none;align=left;verticalAlign=middle;whiteSpace=wrap;rounded=0;container=0;" vertex="1" parent="Ml3G78IfKdre-7SLtmTw-67">
          <mxGeometry x="157" y="118.5" width="125" height="30" as="geometry" />
        </mxCell>
        <mxCell id="GWrSBnzVd4DG-mL2IHD7-14" value="Số tháng tính KH" style="text;html=1;strokeColor=none;fillColor=none;align=left;verticalAlign=middle;whiteSpace=wrap;rounded=0;container=0;labelBackgroundColor=default;" parent="Ml3G78IfKdre-7SLtmTw-67" vertex="1">
          <mxGeometry x="10" width="120" height="30" as="geometry" />
        </mxCell>
        <mxCell id="NxfoncripsZRFfGQhXbu-1" value="Số tiền trích KH/tháng" style="text;html=1;strokeColor=none;fillColor=none;align=left;verticalAlign=middle;whiteSpace=wrap;rounded=0;container=0;labelBackgroundColor=default;" parent="Ml3G78IfKdre-7SLtmTw-67" vertex="1">
          <mxGeometry x="11" y="52.5" width="130" height="30" as="geometry" />
        </mxCell>
        <mxCell id="NxfoncripsZRFfGQhXbu-3" value="Tỷ lệ KH (% năm)" style="text;html=1;strokeColor=none;fillColor=none;align=left;verticalAlign=middle;whiteSpace=wrap;rounded=0;container=0;labelBackgroundColor=default;" parent="Ml3G78IfKdre-7SLtmTw-67" vertex="1">
          <mxGeometry x="8" y="103.5" width="110" height="30" as="geometry" />
        </mxCell>
        <mxCell id="Ml3G78IfKdre-7SLtmTw-2" value="Ngày bắt đầu trích KH" style="text;html=1;strokeColor=none;fillColor=none;align=left;verticalAlign=middle;whiteSpace=wrap;rounded=0;container=0;labelBackgroundColor=default;" vertex="1" parent="Ml3G78IfKdre-7SLtmTw-67">
          <mxGeometry x="9" y="152.5" width="134" height="30" as="geometry" />
        </mxCell>
        <mxCell id="Ml3G78IfKdre-7SLtmTw-69" value="" style="group" vertex="1" connectable="0" parent="1">
          <mxGeometry x="-75" y="453" width="270" height="206" as="geometry" />
        </mxCell>
        <mxCell id="Ml3G78IfKdre-7SLtmTw-55" value="" style="rounded=1;whiteSpace=wrap;html=1;container=0;" vertex="1" parent="Ml3G78IfKdre-7SLtmTw-69">
          <mxGeometry x="20" y="76" width="250" height="30" as="geometry" />
        </mxCell>
        <mxCell id="Ml3G78IfKdre-7SLtmTw-56" value="Tỷ lệ hao mòn (% năm)" style="text;html=1;strokeColor=none;fillColor=none;align=left;verticalAlign=middle;whiteSpace=wrap;rounded=0;container=0;labelBackgroundColor=default;" vertex="1" parent="Ml3G78IfKdre-7SLtmTw-69">
          <mxGeometry x="30" y="60" width="140" height="30" as="geometry" />
        </mxCell>
        <mxCell id="Ml3G78IfKdre-7SLtmTw-58" value="" style="rounded=1;whiteSpace=wrap;html=1;container=0;" vertex="1" parent="Ml3G78IfKdre-7SLtmTw-69">
          <mxGeometry x="20" y="126" width="250" height="30" as="geometry" />
        </mxCell>
        <mxCell id="Ml3G78IfKdre-7SLtmTw-62" value="Thời gian sử dụng còn lại" style="text;html=1;strokeColor=none;fillColor=none;align=left;verticalAlign=middle;whiteSpace=wrap;rounded=0;container=0;labelBackgroundColor=default;" vertex="1" parent="Ml3G78IfKdre-7SLtmTw-69">
          <mxGeometry x="28" y="111" width="140" height="30" as="geometry" />
        </mxCell>
        <mxCell id="Ml3G78IfKdre-7SLtmTw-64" value="" style="rounded=1;whiteSpace=wrap;html=1;container=0;" vertex="1" parent="Ml3G78IfKdre-7SLtmTw-69">
          <mxGeometry x="20" y="176" width="250" height="30" as="geometry" />
        </mxCell>
        <mxCell id="Ml3G78IfKdre-7SLtmTw-65" value="Giá trị còn lại" style="text;html=1;strokeColor=none;fillColor=none;align=left;verticalAlign=middle;whiteSpace=wrap;rounded=0;container=0;labelBackgroundColor=default;" vertex="1" parent="Ml3G78IfKdre-7SLtmTw-69">
          <mxGeometry x="30" y="160" width="90" height="30" as="geometry" />
        </mxCell>
        <mxCell id="Ml3G78IfKdre-7SLtmTw-49" value="" style="group" vertex="1" connectable="0" parent="Ml3G78IfKdre-7SLtmTw-69">
          <mxGeometry width="133" height="30" as="geometry" />
        </mxCell>
        <mxCell id="GWrSBnzVd4DG-mL2IHD7-3" value="" style="rounded=1;whiteSpace=wrap;html=1;container=0;" parent="Ml3G78IfKdre-7SLtmTw-49" vertex="1">
          <mxGeometry x="20" y="5" width="20" height="20" as="geometry" />
        </mxCell>
        <mxCell id="NxfoncripsZRFfGQhXbu-6" value="Tính hao mòn" style="text;html=1;strokeColor=none;fillColor=none;align=left;verticalAlign=middle;whiteSpace=wrap;rounded=0;container=0;" parent="Ml3G78IfKdre-7SLtmTw-49" vertex="1">
          <mxGeometry x="43" width="90" height="30" as="geometry" />
        </mxCell>
        <mxCell id="Ml3G78IfKdre-7SLtmTw-1" value="X" style="text;html=1;strokeColor=none;fillColor=none;align=center;verticalAlign=middle;whiteSpace=wrap;rounded=0;container=0;" vertex="1" parent="Ml3G78IfKdre-7SLtmTw-49">
          <mxGeometry width="60" height="30" as="geometry" />
        </mxCell>
      </root>
    </mxGraphModel>
  </diagram>
  <diagram id="-7bFSCDrIrgvn0NrLZYv" name="Page-2">
    <mxGraphModel dx="1216" dy="1069" grid="0" gridSize="10" guides="1" tooltips="1" connect="1" arrows="1" fold="1" page="0" pageScale="1" pageWidth="850" pageHeight="1100" math="0" shadow="0">
      <root>
        <mxCell id="0" />
        <mxCell id="1" parent="0" />
        <mxCell id="h_44ektQ78BrCspxM2GE-9" style="edgeStyle=orthogonalEdgeStyle;rounded=0;orthogonalLoop=1;jettySize=auto;html=1;exitX=0.5;exitY=1;exitDx=0;exitDy=0;" parent="1" source="h_44ektQ78BrCspxM2GE-2" target="h_44ektQ78BrCspxM2GE-4" edge="1">
          <mxGeometry relative="1" as="geometry" />
        </mxCell>
        <mxCell id="h_44ektQ78BrCspxM2GE-10" style="edgeStyle=orthogonalEdgeStyle;rounded=0;orthogonalLoop=1;jettySize=auto;html=1;exitX=0.5;exitY=1;exitDx=0;exitDy=0;entryX=0.5;entryY=0;entryDx=0;entryDy=0;" parent="1" source="h_44ektQ78BrCspxM2GE-2" target="h_44ektQ78BrCspxM2GE-5" edge="1">
          <mxGeometry relative="1" as="geometry" />
        </mxCell>
        <mxCell id="h_44ektQ78BrCspxM2GE-18" style="edgeStyle=orthogonalEdgeStyle;rounded=0;orthogonalLoop=1;jettySize=auto;html=1;exitX=0.5;exitY=1;exitDx=0;exitDy=0;entryX=0.5;entryY=0;entryDx=0;entryDy=0;" parent="1" source="h_44ektQ78BrCspxM2GE-2" target="h_44ektQ78BrCspxM2GE-17" edge="1">
          <mxGeometry relative="1" as="geometry" />
        </mxCell>
        <mxCell id="h_44ektQ78BrCspxM2GE-2" value="Trích khấu hao toàn bộ tài sản" style="rounded=1;whiteSpace=wrap;html=1;" parent="1" vertex="1">
          <mxGeometry x="223" y="198" width="120" height="40" as="geometry" />
        </mxCell>
        <mxCell id="h_44ektQ78BrCspxM2GE-19" style="edgeStyle=orthogonalEdgeStyle;rounded=0;orthogonalLoop=1;jettySize=auto;html=1;exitX=0.5;exitY=1;exitDx=0;exitDy=0;" parent="1" source="h_44ektQ78BrCspxM2GE-3" target="h_44ektQ78BrCspxM2GE-11" edge="1">
          <mxGeometry relative="1" as="geometry" />
        </mxCell>
        <mxCell id="h_44ektQ78BrCspxM2GE-3" value="Trích khấu hao 1 phần tài sản" style="rounded=1;whiteSpace=wrap;html=1;" parent="1" vertex="1">
          <mxGeometry x="603" y="198" width="120" height="40" as="geometry" />
        </mxCell>
        <mxCell id="h_44ektQ78BrCspxM2GE-4" value="Tính khấu khao theo tỷ lệ áp dụng với doanh nghiệp (TT45/2013)" style="rounded=1;whiteSpace=wrap;html=1;" parent="1" vertex="1">
          <mxGeometry x="73" y="298" width="120" height="92" as="geometry" />
        </mxCell>
        <mxCell id="h_44ektQ78BrCspxM2GE-5" value="Tính khấu hao theo tỷ lệ do cấp trên quyết định" style="rounded=1;whiteSpace=wrap;html=1;" parent="1" vertex="1">
          <mxGeometry x="223" y="298" width="120" height="92" as="geometry" />
        </mxCell>
        <mxCell id="h_44ektQ78BrCspxM2GE-11" value="Tỷ lệ phân bổ trích khấu hao (Theo tình trạng sử dụng tài sản vào kinh doanh)" style="rounded=1;whiteSpace=wrap;html=1;" parent="1" vertex="1">
          <mxGeometry x="572" y="298" width="181" height="92" as="geometry" />
        </mxCell>
        <mxCell id="h_44ektQ78BrCspxM2GE-17" value="Tính khấu hao theo tỷ lệ hao mòn của TT23/2023" style="rounded=1;whiteSpace=wrap;html=1;" parent="1" vertex="1">
          <mxGeometry x="373" y="298" width="120" height="92" as="geometry" />
        </mxCell>
        <mxCell id="_ev7N_h8Sc9wcJmz5NKm-2" value="Đơn vị chỉ tính hao mòn" style="rounded=1;whiteSpace=wrap;html=1;" parent="1" vertex="1">
          <mxGeometry x="108" y="-69" width="120" height="60" as="geometry" />
        </mxCell>
        <mxCell id="_ev7N_h8Sc9wcJmz5NKm-10" style="edgeStyle=orthogonalEdgeStyle;rounded=0;orthogonalLoop=1;jettySize=auto;html=1;exitX=0.5;exitY=1;exitDx=0;exitDy=0;entryX=0.5;entryY=0;entryDx=0;entryDy=0;" parent="1" source="_ev7N_h8Sc9wcJmz5NKm-3" target="h_44ektQ78BrCspxM2GE-2" edge="1">
          <mxGeometry relative="1" as="geometry" />
        </mxCell>
        <mxCell id="_ev7N_h8Sc9wcJmz5NKm-3" value="Đơn vị chỉ tính khấu hao" style="rounded=1;whiteSpace=wrap;html=1;" parent="1" vertex="1">
          <mxGeometry x="343" y="-69" width="120" height="60" as="geometry" />
        </mxCell>
        <mxCell id="XOotIkkaFBJ_ABBJOn3d-1" style="edgeStyle=orthogonalEdgeStyle;rounded=0;orthogonalLoop=1;jettySize=auto;html=1;exitX=0.5;exitY=1;exitDx=0;exitDy=0;entryX=0.5;entryY=0;entryDx=0;entryDy=0;" edge="1" parent="1" source="_ev7N_h8Sc9wcJmz5NKm-4" target="h_44ektQ78BrCspxM2GE-3">
          <mxGeometry relative="1" as="geometry">
            <Array as="points">
              <mxPoint x="582" y="-9" />
              <mxPoint x="582" y="142" />
              <mxPoint x="663" y="142" />
            </Array>
          </mxGeometry>
        </mxCell>
        <mxCell id="XOotIkkaFBJ_ABBJOn3d-3" style="edgeStyle=orthogonalEdgeStyle;rounded=0;orthogonalLoop=1;jettySize=auto;html=1;exitX=0.5;exitY=1;exitDx=0;exitDy=0;entryX=0.75;entryY=0;entryDx=0;entryDy=0;" edge="1" parent="1" source="_ev7N_h8Sc9wcJmz5NKm-4" target="h_44ektQ78BrCspxM2GE-2">
          <mxGeometry relative="1" as="geometry">
            <Array as="points">
              <mxPoint x="583" y="-9" />
              <mxPoint x="583" y="142" />
              <mxPoint x="313" y="142" />
            </Array>
          </mxGeometry>
        </mxCell>
        <mxCell id="_ev7N_h8Sc9wcJmz5NKm-4" value="Đơn vị tính hào mòn và khấu hao" style="rounded=1;whiteSpace=wrap;html=1;" parent="1" vertex="1">
          <mxGeometry x="525" y="-69" width="120" height="60" as="geometry" />
        </mxCell>
        <mxCell id="_ev7N_h8Sc9wcJmz5NKm-7" style="edgeStyle=orthogonalEdgeStyle;rounded=0;orthogonalLoop=1;jettySize=auto;html=1;exitX=0.5;exitY=1;exitDx=0;exitDy=0;entryX=0.5;entryY=0;entryDx=0;entryDy=0;" parent="1" source="_ev7N_h8Sc9wcJmz5NKm-6" target="_ev7N_h8Sc9wcJmz5NKm-2" edge="1">
          <mxGeometry relative="1" as="geometry" />
        </mxCell>
        <mxCell id="_ev7N_h8Sc9wcJmz5NKm-8" style="edgeStyle=orthogonalEdgeStyle;rounded=0;orthogonalLoop=1;jettySize=auto;html=1;exitX=0.5;exitY=1;exitDx=0;exitDy=0;entryX=0.5;entryY=0;entryDx=0;entryDy=0;" parent="1" source="_ev7N_h8Sc9wcJmz5NKm-6" target="_ev7N_h8Sc9wcJmz5NKm-3" edge="1">
          <mxGeometry relative="1" as="geometry" />
        </mxCell>
        <mxCell id="_ev7N_h8Sc9wcJmz5NKm-9" style="edgeStyle=orthogonalEdgeStyle;rounded=0;orthogonalLoop=1;jettySize=auto;html=1;exitX=0.5;exitY=1;exitDx=0;exitDy=0;entryX=0.5;entryY=0;entryDx=0;entryDy=0;" parent="1" source="_ev7N_h8Sc9wcJmz5NKm-6" target="_ev7N_h8Sc9wcJmz5NKm-4" edge="1">
          <mxGeometry relative="1" as="geometry" />
        </mxCell>
        <mxCell id="_ev7N_h8Sc9wcJmz5NKm-6" value="Đơn vị làm việc" style="rounded=1;whiteSpace=wrap;html=1;" parent="1" vertex="1">
          <mxGeometry x="343" y="-180" width="120" height="40" as="geometry" />
        </mxCell>
      </root>
    </mxGraphModel>
  </diagram>
</mxfile>
